<svg width="49" height="50" viewBox="0 0 49 50" fill="none" xmlns="http://www.w3.org/2000/svg">
<path d="M24.3434 49.3743C10.9179 49.3743 0 38.4564 0 25.0309C0 11.6054 10.9179 0.6875 24.3434 0.6875C37.7689 0.6875 48.6868 11.6054 48.6868 25.0309C48.6868 38.4564 37.7689 49.3743 24.3434 49.3743ZM24.3434 1.45767C11.343 1.45767 0.770165 12.0305 0.770165 25.0309C0.770165 38.0313 11.343 48.6041 24.3434 48.6041C37.3438 48.6041 47.9166 38.0313 47.9166 25.0309C47.9166 12.0305 37.3438 1.45767 24.3434 1.45767Z" fill="#232323"/>
<path d="M24.8776 15.692V13.5618C24.8776 13.2775 24.6294 13.0293 24.3451 13.0293C24.0607 13.0293 23.8125 13.2775 23.8125 13.5618V15.692C23.8125 15.9763 24.0607 16.2245 24.3451 16.2245C24.6294 16.2245 24.8776 15.9763 24.8776 15.692Z" fill="#181818"/>
<path d="M17.3493 18.8151C17.4561 18.9218 17.5976 18.9565 17.7404 18.9565C17.8819 18.9565 18.0248 18.9205 18.1316 18.8151C18.3451 18.6015 18.3451 18.2825 18.1316 18.0689L16.6407 16.5781C16.4271 16.3646 16.1081 16.3646 15.8946 16.5781C15.681 16.7917 15.681 17.1107 15.8946 17.3243L17.3493 18.8151Z" fill="#181818"/>
<path d="M12.3438 25.0286C12.3438 25.3129 12.592 25.5612 12.8763 25.5612H15.0065C15.2908 25.5612 15.5391 25.3129 15.5391 25.0286C15.5391 24.7443 15.2908 24.4961 15.0065 24.4961H12.8763C12.592 24.4961 12.3438 24.7443 12.3438 25.0286Z" fill="#181818"/>
<path d="M15.863 33.5143C15.9697 33.6211 16.1112 33.6557 16.2541 33.6557C16.3955 33.6557 16.5384 33.6197 16.6452 33.5143L18.136 32.0235C18.3496 31.8099 18.3496 31.4909 18.136 31.2774C17.9224 31.0638 17.6035 31.0638 17.3899 31.2774L15.899 32.7682C15.6494 32.9817 15.6494 33.3021 15.863 33.5143Z" fill="#181818"/>
<path d="M23.8125 34.3665V36.4966C23.8125 36.7809 24.0607 37.0292 24.3451 37.0292C24.6294 37.0292 24.8776 36.7809 24.8776 36.4966V34.3665C24.8776 34.0822 24.6294 33.834 24.3451 33.834C24.0607 33.834 23.8125 34.0822 23.8125 34.3665Z" fill="#181818"/>
<path d="M32.0837 33.5143C32.1905 33.6211 32.332 33.6557 32.4748 33.6557C32.6163 33.6557 32.7591 33.6197 32.8659 33.5143C33.0795 33.3007 33.0795 32.9818 32.8659 32.7682L31.3751 31.2774C31.1615 31.0638 30.8425 31.0638 30.6289 31.2774C30.4154 31.4909 30.4154 31.8099 30.6289 32.0235L32.0837 33.5143Z" fill="#181818"/>
<path d="M33.681 24.4961C33.3967 24.4961 33.1484 24.7443 33.1484 25.0286C33.1484 25.3129 33.3967 25.5612 33.681 25.5612H35.8112C36.0955 25.5612 36.3437 25.3129 36.3437 25.0286C36.3437 24.7443 36.0955 24.4961 35.8112 24.4961H33.681Z" fill="#181818"/>
<path d="M32.8269 16.5449C32.6133 16.3314 32.2943 16.3314 32.0807 16.5449L30.5899 18.0357C30.3763 18.2493 30.3763 18.5683 30.5899 18.7819C30.6967 18.8886 30.8381 18.9233 30.981 18.9233C31.1224 18.9233 31.2653 18.8873 31.3721 18.7819L32.8629 17.2911C33.0405 17.0775 33.0404 16.7571 32.8269 16.5449Z" fill="#181818"/>
<path d="M31.9774 25.0294C31.9774 20.8054 28.5685 17.3965 24.3442 17.3965C20.1198 17.3965 16.7109 20.8053 16.7109 25.0294C16.7109 29.2536 20.1198 32.6624 24.3442 32.6624C28.5685 32.6624 31.9774 29.2536 31.9774 25.0294ZM24.3442 31.5973C20.7232 31.5973 17.776 28.6504 17.776 25.0294C17.776 21.4085 20.7231 18.4615 24.3442 18.4615C27.9652 18.4615 30.9123 21.4085 30.9123 25.0294C30.9123 28.6504 27.9652 31.5973 24.3442 31.5973Z" fill="#181818"/>
</svg>
