<svg width="147" height="58" viewBox="0 0 147 58" fill="none" xmlns="http://www.w3.org/2000/svg">
<path d="M0.929688 17.6245C0.929688 8.35403 8.44486 0.838867 17.7153 0.838867V25.1338H0.929688V17.6245Z" fill="#E9E9EB" stroke="#E9E9EB" stroke-width="0.68829"/>
<rect x="0.929688" y="25.1338" width="16.7856" height="8.1885" fill="#E9E9EB" stroke="#E9E9EB" stroke-width="0.68829"/>
<path d="M0.929688 40.8316C0.929688 50.102 8.44486 57.6172 17.7153 57.6172V33.3222H0.929688V40.8316Z" fill="#E9E9EB" stroke="#E9E9EB" stroke-width="0.68829"/>
<rect x="17.7148" y="0.838867" width="104" height="56.7784" fill="#E9E9EB"/>
<rect x="17.7148" y="0.838867" width="104" height="56.7784" stroke="#E9E9EB" stroke-width="0.68829"/>
<path d="M40.6748 22.8285H38.0548V36.2285H36.3748V22.8285H32.1548V36.2285H30.4948V29.6885L27.3348 29.6685C27.5748 30.1885 27.6948 30.7352 27.6948 31.3085C27.6948 32.4818 27.3215 33.4218 26.5748 34.1285C25.8415 34.8218 24.8615 35.1685 23.6348 35.1685C22.7815 35.1685 22.0148 35.0018 21.3348 34.6685C20.6682 34.3218 20.1415 33.8418 19.7548 33.2285C19.3815 32.6152 19.1948 31.9085 19.1948 31.1085H20.7548C20.7548 31.8685 21.0082 32.4952 21.5148 32.9885C22.0348 33.4818 22.7015 33.7285 23.5148 33.7285C24.3148 33.7285 24.9548 33.4952 25.4348 33.0285C25.9148 32.5485 26.1548 31.9285 26.1548 31.1685C26.1548 30.5952 26.0015 30.0952 25.6948 29.6685H25.6348L25.6148 29.5485C25.1215 28.9352 24.3682 28.6285 23.3548 28.6285H22.5748V27.2685H23.3548C24.1682 27.2685 24.8015 27.0485 25.2548 26.6085C25.7082 26.1552 25.9348 25.6285 25.9348 25.0285C25.9348 24.3085 25.7015 23.7352 25.2348 23.3085C24.7682 22.8818 24.1815 22.6685 23.4748 22.6685C22.7415 22.6685 22.1282 22.8818 21.6348 23.3085C21.1415 23.7218 20.8948 24.2752 20.8948 24.9685H19.3348C19.3348 23.8352 19.7215 22.9352 20.4948 22.2685C21.2682 21.5885 22.2615 21.2485 23.4748 21.2485C24.6482 21.2485 25.6015 21.5752 26.3348 22.2285C27.0682 22.8685 27.4348 23.7285 27.4348 24.8085C27.4348 25.5818 27.2215 26.2418 26.7948 26.7885C26.3815 27.3218 25.7815 27.6885 24.9948 27.8885V27.9285C25.3682 27.9818 25.7282 28.1085 26.0748 28.3085H30.4948V21.4285H40.6748V22.8285ZM53.52 22.8285H50.9V36.2285H49.24V30.5685C48.9067 31.1152 48.4533 31.5418 47.88 31.8485C47.32 32.1418 46.6533 32.2885 45.88 32.2885C44.48 32.2885 43.4133 31.8418 42.68 30.9485C41.96 30.0552 41.6 28.8485 41.6 27.3285V22.8285H39.36V21.4285H53.52V22.8285ZM49.24 22.8285H43.26V27.3285C43.26 28.4485 43.5067 29.3218 44 29.9485C44.5067 30.5618 45.2667 30.8685 46.28 30.8685C47.2 30.8685 47.92 30.5752 48.44 29.9885C48.9733 29.3885 49.24 28.6485 49.24 27.7685V22.8285ZM68.9975 22.8285V27.1685C69.2908 26.5285 69.7308 26.0152 70.3175 25.6285C70.9042 25.2418 71.6175 25.0485 72.4575 25.0485C73.2575 25.0485 73.9775 25.2418 74.6175 25.6285C75.2575 26.0152 75.7508 26.5552 76.0975 27.2485C76.4575 27.9285 76.6375 28.7085 76.6375 29.5885C76.6375 30.5352 76.4575 31.3552 76.0975 32.0485C75.7375 32.7418 75.2375 33.2752 74.5975 33.6485C73.9708 34.0085 73.2575 34.1885 72.4575 34.1885C71.9642 34.1885 71.5508 34.1418 71.2175 34.0485V32.7285C71.4308 32.7818 71.7108 32.8085 72.0575 32.8085C72.8975 32.8085 73.5842 32.5285 74.1175 31.9685C74.6642 31.3952 74.9375 30.6152 74.9375 29.6285C74.9375 28.6818 74.6575 27.9218 74.0975 27.3485C73.5375 26.7752 72.8375 26.4885 71.9975 26.4885C71.0108 26.4885 70.2642 26.8152 69.7575 27.4685C69.2508 28.1218 68.9975 28.8952 68.9975 29.7885V36.2285H67.3975V32.1885C67.0908 32.8152 66.6308 33.3218 66.0175 33.7085C65.4175 34.0818 64.6775 34.2685 63.7975 34.2685C62.9708 34.2685 62.2308 34.0818 61.5775 33.7085C60.9375 33.3218 60.4375 32.7818 60.0775 32.0885C59.7175 31.3818 59.5375 30.5618 59.5375 29.6285C59.5375 28.7085 59.7175 27.9018 60.0775 27.2085C60.4508 26.5152 60.9642 25.9818 61.6175 25.6085C62.2708 25.2352 63.0175 25.0485 63.8575 25.0485C64.7108 25.0485 65.4375 25.2352 66.0375 25.6085C66.6375 25.9818 67.0908 26.4752 67.3975 27.0885V22.8285H57.5975V21.4285H78.5575V22.8285H68.9975ZM64.3175 32.8685C64.9975 32.8685 65.5642 32.7085 66.0175 32.3885C66.4842 32.0685 66.8308 31.6685 67.0575 31.1885C67.2842 30.6952 67.3975 30.1885 67.3975 29.6685C67.3975 29.1352 67.2842 28.6285 67.0575 28.1485C66.8442 27.6552 66.5042 27.2552 66.0375 26.9485C65.5708 26.6418 64.9975 26.4885 64.3175 26.4885C63.4375 26.4885 62.6975 26.7752 62.0975 27.3485C61.5108 27.9218 61.2175 28.6818 61.2175 29.6285C61.2175 30.6285 61.5042 31.4218 62.0775 32.0085C62.6642 32.5818 63.4108 32.8685 64.3175 32.8685ZM62.5062 15.4085C63.4929 15.4085 64.2529 15.5218 64.7862 15.7485C65.3196 15.9618 65.8862 16.4818 66.4862 17.3085C67.0862 18.1352 67.8862 19.5285 68.8862 21.4885H67.4462C66.6329 20.8485 66.0062 20.4018 65.5662 20.1485C65.1262 19.8818 64.7062 19.7152 64.3062 19.6485C63.8929 19.5685 63.2929 19.5285 62.5062 19.5285H61.6462V18.4485H62.4662C63.2396 18.4485 63.8262 18.4752 64.2262 18.5285C64.6262 18.5818 65.0396 18.7218 65.4662 18.9485C65.8796 19.1752 66.4062 19.5552 67.0462 20.0885C66.4462 18.9685 65.9196 18.1552 65.4662 17.6485C64.9996 17.1418 64.5662 16.8285 64.1662 16.7085C63.7529 16.5752 63.2062 16.5085 62.5262 16.5085H61.6462V15.4085H62.5062ZM94.7598 22.8285H92.0998V36.2285H90.4598V29.2485H81.1398V32.1685C81.1398 33.0218 81.3332 33.7018 81.7198 34.2085C82.1065 34.7152 82.6865 34.9685 83.4598 34.9685C84.1665 34.9685 84.7265 34.7352 85.1398 34.2685C85.5532 33.7885 85.7598 33.1618 85.7598 32.3885V32.1485H87.3598C87.3732 32.2418 87.3798 32.3485 87.3798 32.4685C87.3798 33.6685 87.0265 34.6285 86.3198 35.3485C85.6265 36.0552 84.6798 36.4085 83.4798 36.4085C82.1998 36.4085 81.2132 36.0152 80.5198 35.2285C79.8398 34.4285 79.4998 33.3818 79.4998 32.0885V28.0085H81.3398C82.4598 28.0085 83.3132 27.7085 83.8998 27.1085C84.4865 26.5085 84.7798 25.6885 84.7798 24.6485V22.8285H77.2998V21.4285H94.7598V22.8285ZM90.4598 22.8285H86.4198V24.6485C86.4198 25.3418 86.3132 25.9618 86.0998 26.5085C85.8865 27.0552 85.5865 27.5085 85.1998 27.8685H90.4598V22.8285ZM90.4266 21.5085C89.7332 20.4152 89.1666 19.6285 88.7266 19.1485C88.2732 18.6552 87.8399 18.3352 87.4266 18.1885C87.0132 18.0418 86.4466 17.9685 85.7266 17.9685H84.8866V16.6085H85.7066C86.6799 16.6085 87.4532 16.7085 88.0266 16.9085C88.5999 17.1085 89.1866 17.5485 89.7866 18.2285C90.3866 18.9085 91.1266 20.0018 92.0066 21.5085H90.4266ZM105.019 26.3885C104.392 26.3885 103.879 26.5218 103.479 26.7885C103.079 27.0418 102.879 27.4485 102.879 28.0085C102.879 28.4218 103.005 28.7685 103.259 29.0485C103.512 29.3285 103.859 29.5285 104.299 29.6485C104.672 29.5818 105.045 29.5485 105.419 29.5485C106.712 29.5485 107.725 29.8685 108.459 30.5085C109.205 31.1352 109.659 31.9152 109.819 32.8485H108.219C108.085 32.3285 107.772 31.8752 107.279 31.4885C106.799 31.0885 106.165 30.8885 105.379 30.8885C104.445 30.8885 103.712 31.1752 103.179 31.7485C102.659 32.3218 102.399 33.0418 102.399 33.9085C102.399 34.7885 102.659 35.5085 103.179 36.0685C103.712 36.6285 104.445 36.9085 105.379 36.9085C106.152 36.9085 106.779 36.7152 107.259 36.3285C107.752 35.9552 108.072 35.5085 108.219 34.9885H109.819C109.725 35.5885 109.485 36.1418 109.099 36.6485C108.725 37.1552 108.219 37.5552 107.579 37.8485C106.952 38.1552 106.219 38.3085 105.379 38.3085C104.419 38.3085 103.585 38.1152 102.879 37.7285C102.185 37.3418 101.659 36.8152 101.299 36.1485C100.939 35.4818 100.759 34.7285 100.759 33.8885C100.759 33.0485 100.945 32.3018 101.319 31.6485C101.705 30.9952 102.239 30.4885 102.919 30.1285C102.412 29.9152 102.005 29.6018 101.699 29.1885C101.392 28.7752 101.239 28.2818 101.239 27.7085C101.239 26.8818 101.532 26.2552 102.119 25.8285C102.719 25.3885 103.505 25.1685 104.479 25.1685H107.099V22.8285H98.7186V21.4285H111.499V22.8285H108.679V26.3885H105.019ZM102.182 15.4085C103.169 15.4085 103.929 15.5218 104.462 15.7485C104.995 15.9618 105.562 16.4818 106.162 17.3085C106.762 18.1352 107.562 19.5285 108.562 21.4885H107.122C106.309 20.8485 105.682 20.4018 105.242 20.1485C104.802 19.8818 104.382 19.7152 103.982 19.6485C103.569 19.5685 102.969 19.5285 102.182 19.5285H101.322V18.4485H102.142C102.915 18.4485 103.502 18.4752 103.902 18.5285C104.302 18.5818 104.715 18.7218 105.142 18.9485C105.555 19.1752 106.082 19.5552 106.722 20.0885C106.122 18.9685 105.595 18.1552 105.142 17.6485C104.675 17.1418 104.242 16.8285 103.842 16.7085C103.429 16.5752 102.882 16.5085 102.202 16.5085H101.322V15.4085H102.182ZM111.222 18.5285C111.222 18.8352 111.109 19.1018 110.882 19.3285C110.669 19.5418 110.409 19.6485 110.102 19.6485C109.782 19.6485 109.515 19.5418 109.302 19.3285C109.075 19.1018 108.962 18.8352 108.962 18.5285C108.962 18.2218 109.075 17.9618 109.302 17.7485C109.515 17.5218 109.782 17.4085 110.102 17.4085C110.409 17.4085 110.669 17.5218 110.882 17.7485C111.109 17.9618 111.222 18.2218 111.222 18.5285ZM115.877 22.1085C117.197 22.1085 118.264 22.4818 119.077 23.2285C119.891 23.9752 120.297 24.9752 120.297 26.2285C120.297 27.6285 119.864 28.6685 118.997 29.3485C118.131 30.0152 116.957 30.3485 115.477 30.3485L115.417 32.2485H113.837L113.757 29.0885H114.337C115.657 29.0885 116.691 28.8885 117.437 28.4885C118.184 28.0885 118.557 27.3352 118.557 26.2285C118.557 25.4285 118.317 24.7952 117.837 24.3285C117.357 23.8618 116.711 23.6285 115.897 23.6285C115.071 23.6285 114.417 23.8552 113.937 24.3085C113.471 24.7485 113.237 25.3552 113.237 26.1285H111.517C111.517 25.3285 111.697 24.6285 112.057 24.0285C112.417 23.4152 112.924 22.9418 113.577 22.6085C114.244 22.2752 115.011 22.1085 115.877 22.1085ZM114.617 36.3485C114.271 36.3485 113.977 36.2285 113.737 35.9885C113.497 35.7485 113.377 35.4552 113.377 35.1085C113.377 34.7618 113.497 34.4685 113.737 34.2285C113.977 33.9885 114.271 33.8685 114.617 33.8685C114.951 33.8685 115.231 33.9885 115.457 34.2285C115.697 34.4685 115.817 34.7618 115.817 35.1085C115.817 35.4552 115.697 35.7485 115.457 35.9885C115.231 36.2285 114.951 36.3485 114.617 36.3485Z" fill="black"/>
<path d="M138.5 17.6245C138.5 8.35403 130.985 0.838867 121.714 0.838867V25.1338H138.5V17.6245Z" fill="#E9E9EB" stroke="#E9E9EB" stroke-width="0.68829"/>
<rect width="16.7856" height="8.1885" transform="matrix(-1 0 0 1 138.5 25.1338)" fill="#E9E9EB" stroke="#E9E9EB" stroke-width="0.68829"/>
<path fill-rule="evenodd" clip-rule="evenodd" d="M138.196 44.0344C138.396 42.9977 138.501 41.9269 138.501 40.8316V33.3223H121.715V57.6172C125.78 57.6172 129.508 56.1721 132.413 53.7674C135.31 55.6979 139.956 57.5333 145.57 56.5126C144.024 55.85 138.061 51.8744 138.282 43.9234C138.254 43.9613 138.225 43.9983 138.196 44.0344Z" fill="#E9E9EB"/>
<path d="M138.196 44.0344L138.46 44.2541L137.858 43.9691L138.196 44.0344ZM138.501 33.3223V32.9781H138.845V33.3223H138.501ZM121.715 33.3223H121.371V32.9781H121.715V33.3223ZM121.715 57.6172V57.9614H121.371V57.6172H121.715ZM132.413 53.7674L132.193 53.5024L132.39 53.3391L132.603 53.481L132.413 53.7674ZM145.57 56.5126L145.706 56.1963L146.757 56.6466L145.632 56.8512L145.57 56.5126ZM138.282 43.9234L138.003 43.7209L138.657 42.8228L138.626 43.9329L138.282 43.9234ZM138.845 40.8316C138.845 41.9489 138.738 43.0415 138.533 44.0997L137.858 43.9691C138.054 42.9538 138.157 41.9049 138.157 40.8316H138.845ZM138.845 33.3223V40.8316H138.157V33.3223H138.845ZM121.715 32.9781H138.501V33.6664H121.715V32.9781ZM121.371 57.6172V33.3223H122.059V57.6172H121.371ZM132.632 54.0325C129.668 56.4864 125.863 57.9614 121.715 57.9614V57.2731C125.697 57.2731 129.348 55.8578 132.193 53.5024L132.632 54.0325ZM145.632 56.8512C139.908 57.8918 135.173 56.0199 132.222 54.0538L132.603 53.481C135.448 55.376 140.005 57.1747 145.509 56.174L145.632 56.8512ZM138.626 43.9329C138.518 47.8135 139.917 50.7177 141.532 52.7362C143.154 54.7631 144.986 55.8875 145.706 56.1963L145.435 56.8289C144.609 56.475 142.686 55.2804 140.995 53.1661C139.297 51.0434 137.825 47.9843 137.938 43.9138L138.626 43.9329ZM137.931 43.8148C137.956 43.7841 137.98 43.7529 138.003 43.7209L138.56 44.1258C138.528 44.1697 138.495 44.2124 138.46 44.2541L137.931 43.8148Z" fill="#E9E9EB"/>
</svg>
