<svg width="48" height="49" viewBox="0 0 48 49" fill="none" xmlns="http://www.w3.org/2000/svg">
<rect y="0.5" width="48" height="48" rx="24" fill="url(#paint0_linear_7159_100920)"/>
<mask id="mask0_7159_100920" style="mask-type:alpha" maskUnits="userSpaceOnUse" x="12" y="12" width="24" height="25">
<rect x="12" y="12.5" width="24" height="24" fill="#D9D9D9"/>
</mask>
<g mask="url(#mask0_7159_100920)">
<path d="M18 29.5H30L26.25 24.5L23.25 28.5L21 25.5L18 29.5ZM16 33.5C15.45 33.5 14.9792 33.3042 14.5875 32.9125C14.1958 32.5208 14 32.05 14 31.5V19.5C14 18.95 14.1958 18.4792 14.5875 18.0875C14.9792 17.6958 15.45 17.5 16 17.5H19.15L21 15.5H27L28.85 17.5H32C32.55 17.5 33.0208 17.6958 33.4125 18.0875C33.8042 18.4792 34 18.95 34 19.5V31.5C34 32.05 33.8042 32.5208 33.4125 32.9125C33.0208 33.3042 32.55 33.5 32 33.5H16ZM16 31.5H32V19.5H27.95L26.125 17.5H21.875L20.05 19.5H16V31.5Z" fill="white"/>
</g>
<defs>
<linearGradient id="paint0_linear_7159_100920" x1="1.43051e-06" y1="48.5" x2="25.8045" y2="-9.00586" gradientUnits="userSpaceOnUse">
<stop stop-color="#457EDC"/>
<stop offset="1" stop-color="#101E53"/>
</linearGradient>
</defs>
</svg>
