<svg width="24" height="25" viewBox="0 0 24 25" fill="none" xmlns="http://www.w3.org/2000/svg">
<path d="M15.9347 9.75217L14.2916 15.0457C13.8984 16.3024 12.1359 16.3235 11.7216 15.0738L11.2301 13.6205C11.0967 13.2204 10.7807 12.8974 10.3805 12.771L8.91997 12.2796C7.67712 11.8654 7.69818 10.0892 8.95508 9.71005L14.2495 8.06019C15.2887 7.74426 16.2647 8.72013 15.9347 9.75217Z" stroke="#FF073C" stroke-width="1.5" stroke-linecap="round" stroke-linejoin="round"/>
<path d="M17.3198 20.8655L17.3198 20.8058C17.3198 20.0894 17.7939 19.7312 18.4457 19.7312L18.5642 19.7312C19.2754 19.7312 19.8087 19.1939 19.8087 18.4776L19.8087 18.3582C19.8087 17.7015 20.1643 17.2239 20.8754 17.2239L20.9346 17.2239C21.6457 17.2239 22.0605 16.806 22.0605 16.0896L22.0605 7.9099C22.0605 7.19352 21.6457 6.77563 20.9346 6.77563L20.8754 6.77563C20.1643 6.77563 19.8087 6.29804 19.8087 5.64136L19.8087 5.52196C19.8087 4.80558 19.2754 4.2683 18.5642 4.2683L18.4457 4.2683C17.7939 4.2683 17.3198 3.91011 17.3198 3.19372L17.3198 3.13403C17.3198 2.41764 16.905 1.99976 16.1939 1.99976L7.92721 1.99976C7.2161 1.99976 6.80129 2.41764 6.80129 3.13403L6.80129 3.19372C6.80129 3.9101 6.32721 4.2683 5.67536 4.2683L5.55684 4.2683C4.84573 4.2683 4.3124 4.80558 4.3124 5.52196L4.3124 5.64136C4.3124 6.29804 3.95684 6.77563 3.24573 6.77563L3.18647 6.77563C2.47536 6.77563 2.06055 7.19352 2.06055 7.9099L2.06055 16.0896C2.06055 16.806 2.47536 17.2239 3.18647 17.2239L3.24573 17.2239C3.95684 17.2239 4.3124 17.7015 4.3124 18.3581L4.3124 18.4775C4.3124 19.1939 4.84573 19.7312 5.55684 19.7312L5.67536 19.7312C6.32721 19.7312 6.80129 20.0894 6.80129 20.8058L6.80129 20.8655C6.80129 21.5819 7.2161 21.9998 7.92721 21.9998L16.1939 21.9998C16.905 21.9998 17.3198 21.5819 17.3198 20.8655Z" stroke="#FF0037" stroke-width="1.5"/>
</svg>
