<svg width="71" height="47" viewBox="0 0 71 47" fill="none" xmlns="http://www.w3.org/2000/svg">
<path d="M40.5301 18.4666C38.2789 18.4666 36.3277 20.0195 35.7266 21.8842H43.9821C43.9821 19.865 42.632 18.4666 40.5301 18.4666Z" fill="#FF073C"/>
<path d="M35.4254 0.135742C15.9114 0.135742 0 8.52397 0 21.1049C0 29.1815 6.60418 36.327 16.5111 40.3653L15.4609 46.2682C44.4313 48.7535 71 39.2785 71 21.4152C70.8494 6.34899 51.3367 0.135742 35.4254 0.135742Z" fill="#FF073C"/>
<path d="M38.8222 33.3381C42.8753 33.3381 46.1768 31.319 47.6789 27.5911H42.7247C41.8237 28.8337 40.7735 29.4543 39.1221 29.4543C37.0202 29.4543 35.3688 27.9014 35.2196 25.8822H48.128C50.0793 19.669 46.9272 14.8542 40.6229 14.8542C35.5194 14.8542 31.9168 17.8057 31.0158 22.7763C29.9669 28.8337 33.2683 33.3381 38.8222 33.3381ZM40.6242 18.7367C42.8753 18.7367 44.2268 20.1352 44.2268 22.1543H35.9713C36.4204 20.291 38.2224 18.7367 40.6242 18.7367Z" fill="#F8F6F3"/>
<path d="M27.1145 33.3397H28.3154L29.2164 28.8353H28.1661C26.5147 28.8353 25.7643 27.5926 26.0642 25.7294L27.2651 19.2058H31.0183L31.9193 14.7014H28.1647L28.9151 10.3528H24.1116L21.2593 25.5749C20.5103 30.0779 22.3109 33.3397 27.1145 33.3397Z" fill="#F8F6F3"/>
<path d="M55.7855 33.3384H57.137L58.038 28.834H56.9877C55.3363 28.834 54.4353 27.5913 54.8858 25.7281L57.7381 10.3501H52.9346L50.0823 25.5722C49.18 30.3869 51.2819 33.3384 55.7855 33.3384Z" fill="#F8F6F3"/>
<path d="M22.3098 10.5068H17.5062L16.7559 15.0113H21.4088L22.3098 10.5068Z" fill="#F8F6F3"/>
<path d="M21.11 16.8713H16.3064L13.1543 33.3361H17.9578L21.11 16.8713Z" fill="#F8F6F3"/>
</svg>
