<svg width="49" height="50" viewBox="0 0 49 50" fill="none" xmlns="http://www.w3.org/2000/svg">
<path d="M24.3434 49.3743C10.9179 49.3743 0 38.4564 0 25.0309C0 11.6054 10.9179 0.6875 24.3434 0.6875C37.7689 0.6875 48.6868 11.6054 48.6868 25.0309C48.6868 38.4564 37.7689 49.3743 24.3434 49.3743ZM24.3434 1.45767C11.343 1.45767 0.770165 12.0305 0.770165 25.0309C0.770165 38.0313 11.343 48.6041 24.3434 48.6041C37.3438 48.6041 47.9166 38.0313 47.9166 25.0309C47.9166 12.0305 37.3438 1.45767 24.3434 1.45767Z" fill="#232323"/>
<path d="M24.3394 28.3291C26.161 28.3291 27.6377 26.8524 27.6377 25.0308C27.6377 23.2091 26.161 21.7324 24.3394 21.7324C22.5177 21.7324 21.041 23.2091 21.041 25.0308C21.041 26.8524 22.5177 28.3291 24.3394 28.3291Z" stroke="#181818" stroke-miterlimit="10" stroke-linecap="round" stroke-linejoin="round"/>
<path d="M13.3438 25.9975V24.0624C13.3438 22.919 14.2783 21.9735 15.4327 21.9735C17.4227 21.9735 18.2363 20.5662 17.2358 18.84C16.6641 17.8505 17.0049 16.5642 18.0054 15.9925L19.9075 14.904C20.776 14.3873 21.8975 14.6951 22.4142 15.5637L22.5352 15.7726C23.5247 17.4987 25.1518 17.4987 26.1523 15.7726L26.2733 15.5637C26.79 14.6951 27.9115 14.3873 28.78 14.904L30.6821 15.9925C31.6826 16.5642 32.0234 17.8505 31.4517 18.84C30.4512 20.5662 31.2648 21.9735 33.2548 21.9735C34.3982 21.9735 35.3437 22.908 35.3437 24.0624V25.9975C35.3437 27.1409 34.4092 28.0864 33.2548 28.0864C31.2648 28.0864 30.4512 29.4937 31.4517 31.2199C32.0234 32.2204 31.6826 33.4957 30.6821 34.0674L28.78 35.1559C27.9115 35.6726 26.79 35.3648 26.2733 34.4962L26.1523 34.2873C25.1628 32.5612 23.5357 32.5612 22.5352 34.2873L22.4142 34.4962C21.8975 35.3648 20.776 35.6726 19.9075 35.1559L18.0054 34.0674C17.0049 33.4957 16.6641 32.2094 17.2358 31.2199C18.2363 29.4937 17.4227 28.0864 15.4327 28.0864C14.2783 28.0864 13.3438 27.1409 13.3438 25.9975Z" stroke="#181818" stroke-miterlimit="10" stroke-linecap="round" stroke-linejoin="round"/>
</svg>
