<svg width="49" height="49" viewBox="0 0 49 49" fill="none" xmlns="http://www.w3.org/2000/svg">
<path d="M24.3434 48.6868C10.9179 48.6868 0 37.7689 0 24.3434C0 10.9179 10.9179 0 24.3434 0C37.7689 0 48.6868 10.9179 48.6868 24.3434C48.6868 37.7689 37.7689 48.6868 24.3434 48.6868ZM24.3434 0.770165C11.343 0.770165 0.770165 11.343 0.770165 24.3434C0.770165 37.3438 11.343 47.9166 24.3434 47.9166C37.3438 47.9166 47.9166 37.3438 47.9166 24.3434C47.9166 11.343 37.3438 0.770165 24.3434 0.770165Z" fill="#232323"/>
<path d="M37.6804 27.9716H37.5804V28.0716V29.6353C37.5804 31.1605 36.3391 32.4018 34.8137 32.4018H10.9892C9.46396 32.4018 8.22266 31.1605 8.22266 29.6353V18.3626C8.22266 16.8374 9.46396 15.5961 10.9892 15.5961L34.8134 15.5961C36.3389 15.5961 37.5802 16.8372 37.5802 18.3626V19.9265V20.0265H37.6802H40.6897C41.0669 20.0265 41.3727 20.3323 41.3727 20.7095V27.2886C41.3727 27.6658 41.0669 27.9716 40.6897 27.9716H37.6804ZM40.0067 21.4923V21.3923H39.9067H37.6802H37.5802V21.4923V26.5055V26.6055H37.6802H39.9067H40.0067V26.5055V21.4923ZM9.58881 29.6353C9.58881 30.4077 10.217 31.0359 10.9894 31.0359L34.8137 31.0357C35.5863 31.0357 36.2145 30.4075 36.2145 29.6351V27.2884V20.7093V18.3624C36.2145 17.59 35.5863 16.9618 34.8137 16.9618H10.9894C10.217 16.9618 9.58881 17.59 9.58881 18.3624V29.6353Z" fill="#181818" stroke="#D3F3FF" stroke-width="0.2"/>
<path d="M26.5772 28.6332L26.5771 28.6332C26.5223 28.9093 26.7003 29.1779 26.9757 29.2333C27.2514 29.2887 27.5201 29.1102 27.5757 28.8346L27.9459 26.9982C27.9459 26.9981 27.9459 26.9981 27.9459 26.9981C27.9791 26.8307 27.9273 26.6578 27.8066 26.5373L27.8066 26.5372C27.686 26.4166 27.513 26.3643 27.3458 26.3979L26.5772 28.6332ZM26.5772 28.6332L26.5937 28.5495L26.6204 28.4147L26.5133 28.5009C25.4918 29.3232 24.2313 29.771 22.901 29.771C21.3588 29.771 19.909 29.1704 18.8186 28.0799L18.8186 28.0799C17.728 26.9895 17.1275 25.5397 17.1275 23.9975C17.1275 22.4551 17.728 21.0055 18.8186 19.9149L18.7832 19.8796L18.8186 19.9149C19.909 18.8244 21.3588 18.2238 22.901 18.2238C24.4433 18.2238 25.893 18.8243 26.9836 19.9149L26.9836 19.9149C28.1257 21.0569 28.7399 22.6387 28.6691 24.2523C28.6567 24.5333 28.4189 24.7512 28.1378 24.7388C27.8573 24.7264 27.643 24.495 27.6514 24.2072C27.711 22.8772 27.2039 21.5756 26.2635 20.6352C25.3653 19.7371 24.171 19.2423 22.901 19.2423C21.6309 19.2423 20.4368 19.7371 19.5387 20.6352L19.5387 20.6352C18.6408 21.5336 18.146 22.7277 18.146 23.9977C18.146 25.2678 18.6405 26.4621 19.5387 27.36C20.4368 28.2579 21.6309 28.7527 22.901 28.7527C23.9055 28.7527 24.8601 28.4388 25.6608 27.8651L25.7966 27.7678L25.6297 27.7745C25.384 27.7842 25.1608 27.6164 25.1105 27.368L25.0615 27.3779M26.5772 28.6332L27.3457 26.3979L25.5092 26.7681C25.2674 26.817 25.1003 27.0295 25.1003 27.2667C25.1003 27.2999 25.1038 27.3338 25.1106 27.3682L25.0615 27.3779M25.0615 27.3779C25.0541 27.3405 25.0503 27.3034 25.0503 27.2667C25.0503 27.0061 25.2338 26.7728 25.4993 26.7191L26.2281 20.6706C25.3393 19.7818 24.1577 19.2923 22.901 19.2923C21.6442 19.2923 20.4628 19.7818 19.574 20.6706C18.6855 21.5596 18.196 22.741 18.196 23.9977C18.196 25.2545 18.6853 26.4361 19.574 27.3247C20.4628 28.2132 21.6442 28.7027 22.901 28.7027C23.8661 28.7027 24.7846 28.4099 25.5625 27.8731C25.586 27.8749 25.6098 27.8753 25.6337 27.8744L25.6317 27.8244L25.6026 27.7838C25.5848 27.7965 25.567 27.8091 25.549 27.8216C25.3134 27.7961 25.111 27.6228 25.0615 27.3779Z" fill="#181818" stroke="#D3F3FF" stroke-width="0.1"/>
<path d="M26.1775 24.6913C26.3437 24.7152 26.5021 24.6126 26.5482 24.451C26.5929 24.2891 26.5133 24.1186 26.3589 24.0515L22.4591 22.3558C22.3555 22.3109 22.2361 22.3212 22.1414 22.3829C22.0468 22.4449 21.9898 22.5505 21.9898 22.6636V23.5654L19.6223 23.2484C19.457 23.226 19.3004 23.3289 19.2548 23.4896C19.2463 23.52 19.242 23.5506 19.242 23.5808C19.242 23.7106 19.3178 23.8327 19.4415 23.8875L23.3863 25.6382C23.4901 25.6843 23.6103 25.6747 23.7053 25.613C23.8006 25.551 23.8581 25.4452 23.8581 25.3315V24.3566L26.1775 24.6913Z" fill="#181818"/>
</svg>
