<svg width="49" height="49" viewBox="0 0 49 49" fill="none" xmlns="http://www.w3.org/2000/svg">
<path d="M24.3434 48.6868C10.9179 48.6868 0 37.7689 0 24.3434C0 10.9179 10.924 0 24.3434 0C37.7627 0 48.6868 10.9179 48.6868 24.3434C48.6868 37.7689 37.7689 48.6868 24.3434 48.6868ZM24.3434 0.770165C11.343 0.770165 0.770165 11.343 0.770165 24.3434C0.770165 37.3438 11.343 47.9166 24.3434 47.9166C37.3438 47.9166 47.9166 37.3438 47.9166 24.3434C47.9166 11.343 37.3438 0.770165 24.3434 0.770165Z" fill="black"/>
<path d="M24.3436 35.1007C18.4103 35.1007 13.5859 30.2763 13.5859 24.343C13.5859 19.494 16.8576 15.2304 21.5402 13.9673L22.6061 13.6777L21.9469 14.565C20.7084 16.2408 20.0492 18.2186 20.0492 20.2827C20.0492 25.5937 24.3683 29.9067 29.6731 29.9067C30.8376 29.9067 31.996 29.691 33.1112 29.2597L34.1463 28.8654L33.5794 29.8204C31.6448 33.0736 28.102 35.0945 24.3313 35.0945L24.3436 35.1007ZM20.7084 15.0517C16.9192 16.5304 14.3561 20.2087 14.3561 24.343C14.3561 29.8512 18.8354 34.3305 24.3436 34.3305C27.4797 34.3305 30.4433 32.821 32.3225 30.338C31.4599 30.5659 30.5727 30.683 29.6855 30.683C23.9554 30.683 19.2852 26.0189 19.2852 20.2888C19.2852 18.4343 19.7719 16.6413 20.7084 15.0517Z" fill="black"/>
<path d="M31.17 16.1852C31.4842 16.6411 31.8785 17.0416 32.3406 17.3558C31.8847 17.67 31.4842 18.0644 31.17 18.5265C30.8557 18.0705 30.4614 17.67 29.9993 17.3558C30.4552 17.0416 30.8557 16.6473 31.17 16.1852ZM31.17 14.041L31.1515 14.0595C30.979 15.7847 29.605 17.1586 27.8798 17.3312L27.8613 17.3496L27.8798 17.3681C29.605 17.5406 30.979 18.9146 31.1515 20.6398L31.17 20.6583L31.1884 20.6398C31.361 18.9146 32.7349 17.5406 34.4601 17.3681L34.4786 17.3496L34.4601 17.3312C32.7349 17.1586 31.361 15.7847 31.1884 14.0595L31.17 14.041Z" fill="black"/>
<path d="M25.089 20.4489C25.3354 20.8062 25.6435 21.1143 26.0008 21.3607C25.6435 21.6072 25.3354 21.9153 25.089 22.2726C24.8425 21.9153 24.5344 21.6072 24.1771 21.3607C24.5344 21.1143 24.8425 20.8062 25.089 20.4489ZM25.089 18.7422L25.0766 18.7545C24.9411 20.1223 23.8505 21.2067 22.4889 21.3423L22.4766 21.3546L22.4889 21.3669C23.8567 21.5025 24.9411 22.593 25.0766 23.9547L25.089 23.967L25.1013 23.9547C25.2368 22.5869 26.3274 21.5025 27.689 21.3669L27.7014 21.3546L27.689 21.3423C26.3212 21.2067 25.2368 20.1162 25.1013 18.7545L25.089 18.7422Z" fill="black"/>
<path d="M29.5552 25.4225C29.7462 25.6997 29.9865 25.9462 30.2699 26.1372C29.9926 26.3282 29.7462 26.5685 29.5552 26.8519C29.3642 26.5747 29.1239 26.3282 28.8405 26.1372C29.1177 25.9462 29.3642 25.7059 29.5552 25.4225ZM29.5552 24.1348L29.5428 24.1471C29.4381 25.1945 28.6063 26.0201 27.5651 26.1249L27.5527 26.1372L27.5651 26.1495C28.6125 26.2543 29.4381 27.086 29.5428 28.1273L29.5552 28.1396L29.5675 28.1273C29.6722 27.0799 30.504 26.2543 31.5453 26.1495L31.5576 26.1372L31.5453 26.1249C30.4978 26.0201 29.6722 25.1884 29.5675 24.1471L29.5552 24.1348Z" fill="black"/>
</svg>
