<svg width="48" height="49" viewBox="0 0 48 49" fill="none" xmlns="http://www.w3.org/2000/svg">
<rect y="0.5" width="48" height="48" rx="24" fill="url(#paint0_linear_7159_100926)"/>
<mask id="mask0_7159_100926" style="mask-type:alpha" maskUnits="userSpaceOnUse" x="12" y="12" width="24" height="25">
<rect x="12" y="12.5" width="24" height="24" fill="#D9D9D9"/>
</mask>
<g mask="url(#mask0_7159_100926)">
<path d="M23.9991 26L29.9991 22L23.9991 18V26ZM24.8241 31.5H30.2991C30.1991 31.9 29.9991 32.2458 29.6991 32.5375C29.3991 32.8292 29.0325 33 28.5991 33.05L17.6991 34.375C17.1491 34.4417 16.6533 34.3083 16.2116 33.975C15.77 33.6417 15.5158 33.2 15.4491 32.65L14.1491 21.7C14.0825 21.15 14.22 20.6583 14.5616 20.225C14.9033 19.7917 15.3491 19.5417 15.8991 19.475L17.0241 19.35V21.35L16.1241 21.45L17.4741 32.4L24.8241 31.5ZM21.0241 29.5C20.4741 29.5 20.0033 29.3042 19.6116 28.9125C19.22 28.5208 19.0241 28.05 19.0241 27.5V16.5C19.0241 15.95 19.22 15.4792 19.6116 15.0875C20.0033 14.6958 20.4741 14.5 21.0241 14.5H32.0241C32.5741 14.5 33.045 14.6958 33.4366 15.0875C33.8283 15.4792 34.0241 15.95 34.0241 16.5V27.5C34.0241 28.05 33.8283 28.5208 33.4366 28.9125C33.045 29.3042 32.5741 29.5 32.0241 29.5H21.0241ZM21.0241 27.5H32.0241V16.5H21.0241V27.5Z" fill="white"/>
</g>
<defs>
<linearGradient id="paint0_linear_7159_100926" x1="1.43051e-06" y1="48.5" x2="25.8045" y2="-9.00586" gradientUnits="userSpaceOnUse">
<stop stop-color="#457EDC"/>
<stop offset="1" stop-color="#101E53"/>
</linearGradient>
</defs>
</svg>
